<mxfile host="app.diagrams.net" modified="2023-06-10T10:18:39.530Z" agent="Mozilla/5.0 (Windows NT 10.0; Win64; x64) AppleWebKit/537.36 (KHTML, like Gecko) Chrome/114.0.0.0 Safari/537.36" etag="w_TOzae3lNwuAYu6vbvc" version="21.3.7" type="device">
  <diagram name="Page-1" id="xkzNjrM_sx53pi11YBH4">
    <mxGraphModel dx="1588" dy="789" grid="1" gridSize="10" guides="1" tooltips="1" connect="1" arrows="1" fold="1" page="1" pageScale="1" pageWidth="850" pageHeight="1100" math="0" shadow="0">
      <root>
        <mxCell id="0" />
        <mxCell id="1" parent="0" />
        <mxCell id="s6fcBGqfIHbQymS0JPwP-1" value="" style="rounded=0;whiteSpace=wrap;html=1;fillColor=none;" vertex="1" parent="1">
          <mxGeometry x="250" y="120" width="610" height="860" as="geometry" />
        </mxCell>
        <mxCell id="s6fcBGqfIHbQymS0JPwP-8" value="Register" style="ellipse;whiteSpace=wrap;html=1;" vertex="1" parent="1">
          <mxGeometry x="290" y="180" width="90" height="60" as="geometry" />
        </mxCell>
        <mxCell id="s6fcBGqfIHbQymS0JPwP-9" value="Login" style="ellipse;whiteSpace=wrap;html=1;" vertex="1" parent="1">
          <mxGeometry x="300" y="340" width="90" height="60" as="geometry" />
        </mxCell>
        <mxCell id="s6fcBGqfIHbQymS0JPwP-10" value="Verify Teacher" style="ellipse;whiteSpace=wrap;html=1;" vertex="1" parent="1">
          <mxGeometry x="560" y="170" width="90" height="60" as="geometry" />
        </mxCell>
        <mxCell id="s6fcBGqfIHbQymS0JPwP-11" value="Resume Entry" style="ellipse;whiteSpace=wrap;html=1;" vertex="1" parent="1">
          <mxGeometry x="540" y="340" width="90" height="60" as="geometry" />
        </mxCell>
        <mxCell id="s6fcBGqfIHbQymS0JPwP-12" value="View Profile" style="ellipse;whiteSpace=wrap;html=1;" vertex="1" parent="1">
          <mxGeometry x="300" y="470" width="90" height="60" as="geometry" />
        </mxCell>
        <mxCell id="s6fcBGqfIHbQymS0JPwP-45" style="edgeStyle=orthogonalEdgeStyle;rounded=0;orthogonalLoop=1;jettySize=auto;html=1;exitX=0;exitY=0.5;exitDx=0;exitDy=0;entryX=1;entryY=0.5;entryDx=0;entryDy=0;" edge="1" parent="1" source="s6fcBGqfIHbQymS0JPwP-13" target="s6fcBGqfIHbQymS0JPwP-12">
          <mxGeometry relative="1" as="geometry" />
        </mxCell>
        <mxCell id="s6fcBGqfIHbQymS0JPwP-13" value="Edit Profile" style="ellipse;whiteSpace=wrap;html=1;" vertex="1" parent="1">
          <mxGeometry x="450" y="470" width="90" height="60" as="geometry" />
        </mxCell>
        <mxCell id="s6fcBGqfIHbQymS0JPwP-16" value="Enroll" style="ellipse;whiteSpace=wrap;html=1;" vertex="1" parent="1">
          <mxGeometry x="300" y="570" width="90" height="60" as="geometry" />
        </mxCell>
        <mxCell id="s6fcBGqfIHbQymS0JPwP-17" value="Drop" style="ellipse;whiteSpace=wrap;html=1;" vertex="1" parent="1">
          <mxGeometry x="300" y="650" width="90" height="60" as="geometry" />
        </mxCell>
        <mxCell id="s6fcBGqfIHbQymS0JPwP-19" value="Upload Material" style="ellipse;whiteSpace=wrap;html=1;" vertex="1" parent="1">
          <mxGeometry x="420" y="890" width="90" height="60" as="geometry" />
        </mxCell>
        <mxCell id="s6fcBGqfIHbQymS0JPwP-20" value="Create Course" style="ellipse;whiteSpace=wrap;html=1;" vertex="1" parent="1">
          <mxGeometry x="300" y="800" width="90" height="60" as="geometry" />
        </mxCell>
        <mxCell id="s6fcBGqfIHbQymS0JPwP-25" value="View Material" style="ellipse;whiteSpace=wrap;html=1;" vertex="1" parent="1">
          <mxGeometry x="540" y="660" width="90" height="60" as="geometry" />
        </mxCell>
        <mxCell id="s6fcBGqfIHbQymS0JPwP-26" value="Remove Students and Teachers" style="ellipse;whiteSpace=wrap;html=1;" vertex="1" parent="1">
          <mxGeometry x="670" y="440" width="90" height="60" as="geometry" />
        </mxCell>
        <mxCell id="s6fcBGqfIHbQymS0JPwP-27" value="Remove Course" style="ellipse;whiteSpace=wrap;html=1;" vertex="1" parent="1">
          <mxGeometry x="680" y="540" width="90" height="60" as="geometry" />
        </mxCell>
        <mxCell id="s6fcBGqfIHbQymS0JPwP-28" value="Delete Course" style="ellipse;whiteSpace=wrap;html=1;" vertex="1" parent="1">
          <mxGeometry x="720" y="270" width="90" height="60" as="geometry" />
        </mxCell>
        <mxCell id="s6fcBGqfIHbQymS0JPwP-29" value="View Students and Teachers" style="ellipse;whiteSpace=wrap;html=1;" vertex="1" parent="1">
          <mxGeometry x="700" y="650" width="90" height="60" as="geometry" />
        </mxCell>
        <mxCell id="s6fcBGqfIHbQymS0JPwP-30" value="View Course" style="ellipse;whiteSpace=wrap;html=1;" vertex="1" parent="1">
          <mxGeometry x="700" y="350" width="80" height="60" as="geometry" />
        </mxCell>
        <mxCell id="s6fcBGqfIHbQymS0JPwP-31" value="View Students" style="ellipse;whiteSpace=wrap;html=1;" vertex="1" parent="1">
          <mxGeometry x="370" y="730" width="90" height="60" as="geometry" />
        </mxCell>
        <mxCell id="s6fcBGqfIHbQymS0JPwP-32" value="Admin" style="shape=umlActor;verticalLabelPosition=bottom;verticalAlign=top;html=1;outlineConnect=0;" vertex="1" parent="1">
          <mxGeometry x="950" y="450" width="50" height="130" as="geometry" />
        </mxCell>
        <mxCell id="s6fcBGqfIHbQymS0JPwP-33" value="Student" style="shape=umlActor;verticalLabelPosition=bottom;verticalAlign=top;html=1;outlineConnect=0;" vertex="1" parent="1">
          <mxGeometry x="70" y="360" width="70" height="120" as="geometry" />
        </mxCell>
        <mxCell id="s6fcBGqfIHbQymS0JPwP-34" value="Teacher" style="shape=umlActor;verticalLabelPosition=bottom;verticalAlign=top;html=1;outlineConnect=0;" vertex="1" parent="1">
          <mxGeometry x="80" y="740" width="60" height="110" as="geometry" />
        </mxCell>
        <mxCell id="s6fcBGqfIHbQymS0JPwP-37" value="&lt;font style=&quot;font-size: 11px;&quot;&gt;Email, Password has been entered incorrectly&lt;/font&gt;" style="shape=note;whiteSpace=wrap;html=1;backgroundOutline=1;darkOpacity=0.05;" vertex="1" parent="1">
          <mxGeometry x="410" y="250" width="120" height="100" as="geometry" />
        </mxCell>
        <mxCell id="s6fcBGqfIHbQymS0JPwP-39" value="&amp;lt;&amp;lt;Include&amp;gt;&amp;gt;" style="rounded=0;whiteSpace=wrap;html=1;rotation=-5;" vertex="1" parent="1">
          <mxGeometry x="410" y="160" width="100" height="30" as="geometry" />
        </mxCell>
        <mxCell id="s6fcBGqfIHbQymS0JPwP-40" value="" style="endArrow=classic;html=1;rounded=0;exitX=0;exitY=0.5;exitDx=0;exitDy=0;entryX=1;entryY=0.5;entryDx=0;entryDy=0;dashed=1;" edge="1" parent="1" source="s6fcBGqfIHbQymS0JPwP-11" target="s6fcBGqfIHbQymS0JPwP-9">
          <mxGeometry width="50" height="50" relative="1" as="geometry">
            <mxPoint x="660" y="350" as="sourcePoint" />
            <mxPoint x="710" y="300" as="targetPoint" />
          </mxGeometry>
        </mxCell>
        <mxCell id="s6fcBGqfIHbQymS0JPwP-41" value="&amp;lt;&amp;lt;extend&amp;gt;&amp;gt;" style="rounded=0;whiteSpace=wrap;html=1;" vertex="1" parent="1">
          <mxGeometry x="420" y="380" width="90" height="30" as="geometry" />
        </mxCell>
        <mxCell id="s6fcBGqfIHbQymS0JPwP-44" value="" style="endArrow=classic;html=1;rounded=0;entryX=0;entryY=0.5;entryDx=0;entryDy=0;exitX=1;exitY=0.5;exitDx=0;exitDy=0;dashed=1;" edge="1" parent="1" source="s6fcBGqfIHbQymS0JPwP-8" target="s6fcBGqfIHbQymS0JPwP-10">
          <mxGeometry width="50" height="50" relative="1" as="geometry">
            <mxPoint x="390" y="240" as="sourcePoint" />
            <mxPoint x="440" y="190" as="targetPoint" />
          </mxGeometry>
        </mxCell>
        <mxCell id="s6fcBGqfIHbQymS0JPwP-47" value="" style="endArrow=none;html=1;rounded=0;entryX=0;entryY=0.5;entryDx=0;entryDy=0;" edge="1" parent="1" target="s6fcBGqfIHbQymS0JPwP-8">
          <mxGeometry width="50" height="50" relative="1" as="geometry">
            <mxPoint x="140" y="400" as="sourcePoint" />
            <mxPoint x="190" y="350" as="targetPoint" />
          </mxGeometry>
        </mxCell>
        <mxCell id="s6fcBGqfIHbQymS0JPwP-48" value="" style="endArrow=none;html=1;rounded=0;entryX=0;entryY=0.5;entryDx=0;entryDy=0;" edge="1" parent="1" target="s6fcBGqfIHbQymS0JPwP-9">
          <mxGeometry width="50" height="50" relative="1" as="geometry">
            <mxPoint x="140" y="400" as="sourcePoint" />
            <mxPoint x="190" y="350" as="targetPoint" />
          </mxGeometry>
        </mxCell>
        <mxCell id="s6fcBGqfIHbQymS0JPwP-49" value="" style="endArrow=none;html=1;rounded=0;entryX=0;entryY=0.5;entryDx=0;entryDy=0;" edge="1" parent="1" target="s6fcBGqfIHbQymS0JPwP-12">
          <mxGeometry width="50" height="50" relative="1" as="geometry">
            <mxPoint x="150" y="400" as="sourcePoint" />
            <mxPoint x="220" y="510" as="targetPoint" />
          </mxGeometry>
        </mxCell>
        <mxCell id="s6fcBGqfIHbQymS0JPwP-50" value="" style="endArrow=none;html=1;rounded=0;entryX=0;entryY=0.5;entryDx=0;entryDy=0;" edge="1" parent="1" target="s6fcBGqfIHbQymS0JPwP-16">
          <mxGeometry width="50" height="50" relative="1" as="geometry">
            <mxPoint x="140" y="400" as="sourcePoint" />
            <mxPoint x="210" y="520" as="targetPoint" />
          </mxGeometry>
        </mxCell>
        <mxCell id="s6fcBGqfIHbQymS0JPwP-51" value="" style="endArrow=none;html=1;rounded=0;entryX=0;entryY=0.5;entryDx=0;entryDy=0;" edge="1" parent="1" target="s6fcBGqfIHbQymS0JPwP-17">
          <mxGeometry width="50" height="50" relative="1" as="geometry">
            <mxPoint x="150" y="400" as="sourcePoint" />
            <mxPoint x="210" y="560" as="targetPoint" />
          </mxGeometry>
        </mxCell>
        <mxCell id="s6fcBGqfIHbQymS0JPwP-52" value="" style="endArrow=none;html=1;rounded=0;entryX=0;entryY=0.3333333333333333;entryDx=0;entryDy=0;entryPerimeter=0;exitX=1;exitY=0.5;exitDx=0;exitDy=0;" edge="1" parent="1" source="s6fcBGqfIHbQymS0JPwP-28" target="s6fcBGqfIHbQymS0JPwP-32">
          <mxGeometry width="50" height="50" relative="1" as="geometry">
            <mxPoint x="880" y="450" as="sourcePoint" />
            <mxPoint x="930" y="400" as="targetPoint" />
          </mxGeometry>
        </mxCell>
        <mxCell id="s6fcBGqfIHbQymS0JPwP-53" value="" style="endArrow=none;html=1;rounded=0;exitX=1;exitY=0.5;exitDx=0;exitDy=0;" edge="1" parent="1" source="s6fcBGqfIHbQymS0JPwP-30">
          <mxGeometry width="50" height="50" relative="1" as="geometry">
            <mxPoint x="900" y="540" as="sourcePoint" />
            <mxPoint x="950" y="490" as="targetPoint" />
          </mxGeometry>
        </mxCell>
        <mxCell id="s6fcBGqfIHbQymS0JPwP-54" value="" style="endArrow=none;html=1;rounded=0;entryX=0;entryY=0.3333333333333333;entryDx=0;entryDy=0;entryPerimeter=0;exitX=1;exitY=0.5;exitDx=0;exitDy=0;" edge="1" parent="1" source="s6fcBGqfIHbQymS0JPwP-26" target="s6fcBGqfIHbQymS0JPwP-32">
          <mxGeometry width="50" height="50" relative="1" as="geometry">
            <mxPoint x="900" y="560" as="sourcePoint" />
            <mxPoint x="950" y="510" as="targetPoint" />
          </mxGeometry>
        </mxCell>
        <mxCell id="s6fcBGqfIHbQymS0JPwP-55" value="" style="endArrow=none;html=1;rounded=0;exitX=1;exitY=0.5;exitDx=0;exitDy=0;" edge="1" parent="1" source="s6fcBGqfIHbQymS0JPwP-27">
          <mxGeometry width="50" height="50" relative="1" as="geometry">
            <mxPoint x="880" y="610" as="sourcePoint" />
            <mxPoint x="950" y="490" as="targetPoint" />
          </mxGeometry>
        </mxCell>
        <mxCell id="s6fcBGqfIHbQymS0JPwP-56" value="" style="endArrow=none;html=1;rounded=0;exitX=1;exitY=0.5;exitDx=0;exitDy=0;" edge="1" parent="1" source="s6fcBGqfIHbQymS0JPwP-29">
          <mxGeometry width="50" height="50" relative="1" as="geometry">
            <mxPoint x="880" y="630" as="sourcePoint" />
            <mxPoint x="950" y="490" as="targetPoint" />
          </mxGeometry>
        </mxCell>
        <mxCell id="s6fcBGqfIHbQymS0JPwP-57" value="" style="endArrow=none;html=1;rounded=0;entryX=0;entryY=0.5;entryDx=0;entryDy=0;" edge="1" parent="1" target="s6fcBGqfIHbQymS0JPwP-20">
          <mxGeometry width="50" height="50" relative="1" as="geometry">
            <mxPoint x="140" y="780" as="sourcePoint" />
            <mxPoint x="190" y="730" as="targetPoint" />
          </mxGeometry>
        </mxCell>
        <mxCell id="s6fcBGqfIHbQymS0JPwP-59" value="" style="endArrow=none;html=1;rounded=0;entryX=0;entryY=0.5;entryDx=0;entryDy=0;" edge="1" parent="1" target="s6fcBGqfIHbQymS0JPwP-12">
          <mxGeometry width="50" height="50" relative="1" as="geometry">
            <mxPoint x="140" y="780" as="sourcePoint" />
            <mxPoint x="190" y="730" as="targetPoint" />
          </mxGeometry>
        </mxCell>
        <mxCell id="s6fcBGqfIHbQymS0JPwP-60" value="" style="endArrow=none;html=1;rounded=0;entryX=0;entryY=0.5;entryDx=0;entryDy=0;" edge="1" parent="1" target="s6fcBGqfIHbQymS0JPwP-25">
          <mxGeometry width="50" height="50" relative="1" as="geometry">
            <mxPoint x="140" y="400" as="sourcePoint" />
            <mxPoint x="180" y="540" as="targetPoint" />
          </mxGeometry>
        </mxCell>
        <mxCell id="s6fcBGqfIHbQymS0JPwP-61" value="" style="endArrow=none;html=1;rounded=0;entryX=0;entryY=0.5;entryDx=0;entryDy=0;" edge="1" parent="1" target="s6fcBGqfIHbQymS0JPwP-25">
          <mxGeometry width="50" height="50" relative="1" as="geometry">
            <mxPoint x="140" y="780" as="sourcePoint" />
            <mxPoint x="190" y="730" as="targetPoint" />
          </mxGeometry>
        </mxCell>
        <mxCell id="s6fcBGqfIHbQymS0JPwP-62" value="" style="endArrow=none;html=1;rounded=0;entryX=0;entryY=0.5;entryDx=0;entryDy=0;" edge="1" parent="1" target="s6fcBGqfIHbQymS0JPwP-31">
          <mxGeometry width="50" height="50" relative="1" as="geometry">
            <mxPoint x="140" y="780" as="sourcePoint" />
            <mxPoint x="190" y="730" as="targetPoint" />
          </mxGeometry>
        </mxCell>
        <mxCell id="s6fcBGqfIHbQymS0JPwP-63" value="" style="endArrow=none;html=1;rounded=0;entryX=0;entryY=0.5;entryDx=0;entryDy=0;" edge="1" parent="1" target="s6fcBGqfIHbQymS0JPwP-19">
          <mxGeometry width="50" height="50" relative="1" as="geometry">
            <mxPoint x="150" y="780" as="sourcePoint" />
            <mxPoint x="430" y="890" as="targetPoint" />
          </mxGeometry>
        </mxCell>
        <mxCell id="s6fcBGqfIHbQymS0JPwP-64" value="E-Learning Platform" style="text;html=1;strokeColor=none;fillColor=none;align=center;verticalAlign=middle;whiteSpace=wrap;rounded=0;" vertex="1" parent="1">
          <mxGeometry x="740" y="130" width="110" height="30" as="geometry" />
        </mxCell>
      </root>
    </mxGraphModel>
  </diagram>
</mxfile>
